<?xml version="1.0" standalone="no"?>
<!DOCTYPE svg PUBLIC "-//W3C//DTD SVG 20010904//EN"
 "http://www.w3.org/TR/2001/REC-SVG-20010904/DTD/svg10.dtd">
<svg version="1.0" xmlns="http://www.w3.org/2000/svg"
 width="755.000000pt" height="341.000000pt" viewBox="0 0 755.000000 341.000000"
 preserveAspectRatio="xMidYMid meet">

<g transform="translate(0.000000,341.000000) scale(0.100000,-0.100000)"
fill="#D9232A" stroke="none">
<path d="M100 3295 l-95 -95 150 -150 150 -150 -150 -150 -150 -150 98 -97 97
-98 150 150 150 150 150 -150 150 -150 97 98 98 97 -150 150 -150 150 150 150
150 150 -98 97 -97 98 -150 -150 -150 -150 -148 148 c-81 81 -150 147 -152
147 -3 0 -48 -43 -100 -95z"/>
<path d="M1774 3299 c-117 -40 -211 -137 -250 -256 -25 -81 -23 -218 5 -296
56 -159 189 -252 377 -264 94 -6 216 15 300 52 l54 24 0 205 0 206 -155 0
-156 0 3 -62 3 -63 83 -3 82 -3 0 -95 0 -95 -37 -16 c-58 -25 -190 -29 -251
-9 -62 21 -119 75 -152 142 -20 40 -24 65 -24 139 -1 79 2 96 26 141 53 101
131 148 248 148 76 0 150 -23 190 -59 14 -13 22 -9 69 39 l53 54 -38 26 c-70
45 -121 58 -249 62 -103 4 -129 1 -181 -17z"/>
<path d="M6078 3123 l-3 -78 -52 -3 -53 -3 0 -55 0 -54 55 0 55 0 0 -162 c0
-137 3 -170 19 -204 24 -53 68 -74 153 -74 103 0 108 4 108 65 l0 52 -48 -5
c-37 -3 -53 0 -72 16 -24 20 -25 25 -28 166 l-3 146 75 0 76 0 0 55 0 54 -72
3 -73 3 -3 78 -3 77 -64 0 -64 0 -3 -77z"/>
<path d="M2617 3049 c-59 -14 -110 -44 -150 -88 -51 -57 -69 -104 -70 -186 -2
-162 103 -272 269 -283 88 -6 154 14 213 64 l41 36 -44 34 c-51 39 -58 40 -77
17 -8 -9 -34 -25 -58 -36 -76 -33 -160 -6 -196 63 -32 61 -35 60 190 60 l205
0 0 53 c0 191 -142 309 -323 266z m118 -103 c35 -15 75 -67 75 -98 0 -16 -13
-18 -141 -18 l-141 0 6 26 c22 85 114 126 201 90z"/>
<path d="M3303 3049 c-18 -5 -49 -25 -68 -45 l-35 -35 0 36 0 35 -65 0 -65 0
0 -270 0 -270 65 0 65 0 0 163 c0 149 2 167 23 207 18 36 30 48 64 60 51 17
87 7 117 -33 19 -26 21 -44 24 -213 l4 -184 63 0 64 0 3 184 3 185 29 30 c35
37 84 48 127 30 51 -21 59 -55 59 -254 l0 -175 65 0 65 0 0 196 c0 124 -4 211
-12 237 -40 134 -211 169 -323 66 -41 -38 -44 -39 -50 -19 -17 54 -144 93
-222 69z"/>
<path d="M4248 3047 c-205 -58 -277 -312 -131 -468 58 -62 127 -89 221 -88 37
0 81 6 99 12 45 17 125 76 121 89 -2 6 -23 24 -45 41 l-42 30 -31 -26 c-38
-32 -102 -51 -147 -42 -18 3 -49 19 -67 36 -33 29 -60 81 -49 93 4 3 98 6 211
6 l205 0 -6 70 c-10 114 -64 203 -144 237 -49 20 -141 25 -195 10z m156 -112
c22 -15 62 -92 53 -102 -2 -2 -68 -2 -146 -1 l-141 3 22 45 c30 58 75 83 140
76 26 -3 58 -12 72 -21z"/>
<path d="M4917 3049 c-96 -23 -184 -101 -208 -186 -40 -141 14 -277 135 -341
45 -24 62 -27 146 -27 103 0 130 9 195 66 l35 31 -44 34 c-51 39 -58 40 -77
17 -8 -9 -34 -25 -58 -36 -76 -33 -160 -6 -196 63 -32 61 -35 60 190 60 l205
0 0 53 c0 191 -142 309 -323 266z m118 -103 c35 -15 75 -67 75 -98 0 -16 -13
-18 -141 -18 l-141 0 7 28 c7 31 50 80 80 92 31 13 82 11 120 -4z"/>
<path d="M5605 3046 c-22 -8 -55 -32 -72 -52 l-33 -37 0 41 0 42 -60 0 -60 0
0 -270 0 -270 65 0 65 0 0 174 c0 164 1 175 23 207 30 44 63 61 111 55 81 -9
95 -52 96 -278 l0 -158 65 0 65 0 0 203 c0 202 0 204 -27 257 -20 38 -39 59
-64 72 -50 26 -125 31 -174 14z"/>
<path d="M6667 3050 c-130 -33 -206 -124 -215 -257 -8 -123 38 -212 140 -269
48 -26 61 -29 148 -29 105 0 149 16 203 72 l27 29 -45 33 -45 32 -42 -30 c-59
-41 -113 -49 -171 -23 -47 21 -71 48 -82 95 l-7 27 211 0 211 0 0 23 c0 41
-21 141 -37 172 -22 43 -62 84 -105 106 -45 23 -138 32 -191 19z m117 -104
c40 -17 76 -60 76 -92 l0 -24 -141 0 -140 0 6 23 c11 37 40 71 76 89 41 22 78
23 123 4z"/>
<path d="M100 2095 l-95 -95 150 -150 150 -150 -150 -150 -150 -150 98 -97 97
-98 150 150 150 150 150 -150 150 -150 97 98 98 97 -150 150 -150 150 150 150
150 150 -98 97 -97 98 -150 -150 -150 -150 -148 148 c-81 81 -150 147 -152
147 -3 0 -48 -43 -100 -95z"/>
<path d="M5800 1970 l0 -190 -41 29 c-114 83 -284 52 -359 -65 -93 -148 -48
-358 93 -431 43 -22 146 -29 202 -13 25 7 60 28 80 47 l35 34 0 -41 0 -40 65
0 65 0 0 430 0 430 -70 0 -70 0 0 -190z m-84 -251 c82 -39 114 -137 72 -219
-32 -61 -77 -90 -143 -90 -170 0 -224 234 -72 309 53 26 89 26 143 0z"/>
<path d="M1635 1709 c-93 -215 -171 -395 -173 -400 -2 -5 32 -9 75 -9 l78 0
35 90 35 90 180 -2 179 -3 35 -87 34 -88 79 0 c72 0 79 2 74 18 -4 10 -80 189
-170 398 l-164 379 -63 3 -64 3 -170 -392z m293 61 c33 -85 58 -158 55 -162
-6 -11 -243 -10 -243 1 0 5 24 72 53 148 30 76 57 147 61 157 3 10 8 17 11 15
2 -3 31 -74 63 -159z"/>
<path d="M3900 1920 l0 -80 -55 0 -55 0 0 -55 0 -55 54 0 53 0 5 -168 c4 -145
7 -174 24 -203 28 -48 75 -69 154 -69 105 0 110 3 110 65 l0 54 -54 -6 c-46
-5 -57 -2 -75 16 -19 19 -21 31 -21 166 l0 145 75 0 75 0 0 55 0 55 -75 0 -75
0 0 80 0 80 -70 0 -70 0 0 -80z"/>
<path d="M2590 1847 c-44 -15 -71 -34 -93 -67 l-17 -24 0 42 0 42 -65 0 -65 0
0 -270 0 -270 64 0 64 0 4 173 c4 194 12 222 72 251 42 20 69 20 106 1 42 -22
50 -64 50 -257 l0 -168 65 0 65 0 0 164 c0 92 5 177 11 193 25 66 90 98 150
73 53 -22 59 -49 59 -250 l0 -180 71 0 71 0 -4 203 c-4 162 -8 210 -22 242
-34 80 -81 109 -176 109 -74 0 -114 -17 -154 -65 -15 -17 -28 -30 -29 -28 -2
2 -11 16 -20 31 -10 15 -30 34 -46 42 -40 21 -120 28 -161 13z"/>
<path d="M3458 1847 c-93 -27 -138 -78 -138 -160 0 -92 43 -132 177 -163 88
-20 113 -36 113 -74 0 -44 -36 -64 -105 -58 -44 4 -62 11 -85 33 l-31 29 -45
-45 -46 -46 47 -31 c82 -54 234 -58 319 -8 56 33 76 69 76 136 0 96 -42 135
-177 166 -111 25 -139 58 -92 105 29 29 108 23 144 -11 l24 -22 45 38 c42 37
43 40 28 58 -44 50 -171 76 -254 53z"/>
<path d="M4481 1845 c-157 -44 -243 -201 -197 -360 22 -74 97 -153 170 -178
62 -21 158 -22 218 -1 52 17 125 75 115 91 -3 5 -24 22 -46 37 l-40 28 -31
-26 c-41 -34 -99 -50 -146 -41 -49 9 -114 71 -114 109 l0 26 205 0 205 0 0 48
c0 109 -55 213 -132 250 -59 29 -140 35 -207 17z m153 -110 c28 -19 60 -80 52
-101 -4 -11 -33 -14 -141 -14 -133 0 -135 0 -135 23 0 34 34 81 71 101 40 20
115 16 153 -9z"/>
<path d="M5210 1853 c-52 -19 -82 -39 -99 -66 l-21 -32 0 43 0 42 -70 0 -70 0
0 -270 0 -270 70 0 70 0 0 168 c0 150 2 170 20 200 26 43 80 66 142 60 l48 -5
0 62 c0 48 -4 64 -16 69 -18 7 -53 7 -74 -1z"/>
<path d="M6230 1844 c-54 -15 -130 -57 -130 -72 0 -5 15 -23 33 -40 29 -28 36
-31 46 -18 15 18 95 46 133 46 46 0 95 -26 112 -59 28 -54 25 -57 -76 -65
-204 -14 -288 -69 -288 -189 0 -91 81 -157 194 -157 65 0 138 28 159 61 18 29
27 23 27 -16 l0 -35 61 0 61 0 -4 203 c-3 185 -5 206 -25 247 -47 94 -165 131
-303 94z m198 -322 c6 -40 -18 -92 -52 -113 -47 -29 -130 -26 -161 6 -57 56
-12 110 105 125 85 12 105 8 108 -18z"/>
<path d="M6940 1847 c-44 -15 -71 -34 -93 -67 l-17 -24 0 42 0 42 -65 0 -65 0
0 -270 0 -270 64 0 64 0 4 173 c5 194 13 223 72 251 42 20 69 20 106 1 42 -22
50 -64 50 -257 l0 -168 65 0 65 0 0 164 c0 92 5 177 11 193 25 66 90 98 150
73 53 -22 59 -49 59 -250 l0 -180 65 0 65 0 0 208 c0 196 -1 210 -22 252 -27
53 -71 85 -128 94 -79 12 -149 -11 -194 -65 -15 -17 -28 -30 -29 -28 -2 2 -11
16 -20 31 -10 15 -30 34 -46 42 -40 21 -120 28 -161 13z"/>
<path d="M100 895 l-95 -95 150 -150 150 -150 -150 -150 -150 -150 98 -97 97
-98 150 150 150 150 150 -150 150 -150 97 98 98 97 -150 150 -150 150 150 150
150 150 -98 97 -97 98 -150 -150 -150 -150 -148 148 c-81 81 -150 147 -152
147 -3 0 -48 -43 -100 -95z"/>
</g>
</svg>
